<svg data-v-fde0c5aa="" xmlns="http://www.w3.org/2000/svg" viewBox="0 0 300 300" class="font"><!----><defs data-v-fde0c5aa=""><!----></defs><rect data-v-fde0c5aa="" fill="transparent" x="0" y="0" width="300px" height="300px" class="logo-background-square"></rect><defs data-v-fde0c5aa=""><linearGradient data-v-fde0c5aa="" gradientTransform="rotate(25)" id="92c9db17-a54c-450c-ac97-06ff1721df3a" x1="0%" y1="0%" x2="100%" y2="0%"><stop data-v-fde0c5aa="" offset="0%" stop-color="#007DE8" stop-opacity="1"></stop><stop data-v-fde0c5aa="" offset="100%" stop-color="#A1C3DB" stop-opacity="1"></stop></linearGradient></defs><g data-v-fde0c5aa="" id="9388f00c-305f-43a6-9d22-fcd922b7632a" fill="url(#92c9db17-a54c-450c-ac97-06ff1721df3a)" transform="matrix(6.148686626766937,0,0,6.148686626766937,38.09390713104264,102.22470649325892)"><path d="M4.01 12.71Q3.12 12.71 2.33 12.39Q1.54 12.07 1.00 11.43Q0.46 10.79 0.31 9.88L0.31 9.88L2.03 9.44Q2.12 10.30 2.67 10.74Q3.22 11.18 4.03 11.18L4.03 11.18Q4.53 11.18 4.89 11.02Q5.26 10.86 5.44 10.58Q5.63 10.29 5.63 9.95L5.63 9.95Q5.63 9.53 5.37 9.24Q5.11 8.94 4.73 8.75Q4.35 8.56 3.68 8.29L3.68 8.29Q2.80 7.94 2.26 7.65Q1.72 7.35 1.34 6.82Q0.95 6.28 0.95 5.47L0.95 5.47Q0.95 4.64 1.36 4.04Q1.76 3.43 2.45 3.12Q3.14 2.80 3.96 2.80L3.96 2.80Q4.89 2.80 5.66 3.22Q6.43 3.64 6.90 4.50L6.90 4.50L5.46 5.38Q5.21 4.89 4.80 4.62Q4.39 4.35 3.90 4.35L3.90 4.35Q3.56 4.35 3.28 4.48Q3.01 4.61 2.85 4.84Q2.69 5.08 2.69 5.38L2.69 5.38Q2.69 5.75 2.93 6.01Q3.17 6.27 3.53 6.45Q3.90 6.62 4.53 6.87L4.53 6.87Q5.43 7.22 6.00 7.53Q6.56 7.83 6.96 8.39Q7.36 8.94 7.36 9.79L7.36 9.79Q7.36 10.68 6.91 11.34Q6.47 12.00 5.70 12.36Q4.94 12.71 4.01 12.71L4.01 12.71ZM9.02 12.61L9.02 2.95L10.75 2.95L10.75 6.98L14.98 6.98L14.98 2.95L16.72 2.95L16.72 12.61L14.98 12.61L14.98 8.57L10.75 8.57L10.75 12.61L9.02 12.61ZM23.19 12.74Q21.66 12.74 20.61 12.07Q19.56 11.40 19.04 10.27Q18.53 9.14 18.53 7.77L18.53 7.77Q18.53 6.41 19.04 5.28Q19.56 4.15 20.61 3.48Q21.66 2.80 23.19 2.80L23.19 2.80Q24.72 2.80 25.77 3.48Q26.82 4.15 27.33 5.28Q27.85 6.41 27.85 7.77L27.85 7.77Q27.85 9.14 27.33 10.27Q26.82 11.40 25.77 12.07Q24.72 12.74 23.19 12.74L23.19 12.74ZM23.19 11.20Q24.18 11.20 24.81 10.74Q25.44 10.28 25.73 9.51Q26.02 8.74 26.02 7.77L26.02 7.77Q26.02 6.81 25.73 6.04Q25.44 5.27 24.81 4.81Q24.18 4.35 23.19 4.35L23.19 4.35Q22.20 4.35 21.56 4.81Q20.93 5.27 20.64 6.04Q20.36 6.81 20.36 7.77L20.36 7.77Q20.36 8.74 20.64 9.51Q20.93 10.28 21.56 10.74Q22.20 11.20 23.19 11.20L23.19 11.20ZM29.65 12.61L29.65 2.95L32.68 2.95Q33.67 2.95 34.45 3.28Q35.22 3.62 35.66 4.27Q36.09 4.92 36.09 5.80L36.09 5.80Q36.09 6.69 35.66 7.31Q35.22 7.94 34.45 8.27Q33.67 8.60 32.68 8.60L32.68 8.60L31.38 8.60L31.38 12.61L29.65 12.61ZM31.38 6.98L32.68 6.98Q33.56 6.98 33.96 6.69Q34.37 6.39 34.37 5.80L34.37 5.80Q34.37 4.57 32.68 4.57L32.68 4.57L31.38 4.57L31.38 6.98Z"></path></g><!----><!----></svg>